<mxfile host="Electron" agent="Mozilla/5.0 (Windows NT 10.0; Win64; x64) AppleWebKit/537.36 (KHTML, like Gecko) draw.io/26.0.9 Chrome/128.0.6613.186 Electron/32.2.5 Safari/537.36" version="26.0.9">
  <diagram name="Page-1" id="bfe91b75-5d2c-26a0-9c1d-138518896778">
    <mxGraphModel dx="1434" dy="844" grid="1" gridSize="10" guides="1" tooltips="1" connect="1" arrows="1" fold="1" page="1" pageScale="1" pageWidth="1100" pageHeight="850" background="none" math="0" shadow="0">
      <root>
        <mxCell id="0" />
        <mxCell id="1" parent="0" />
        <mxCell id="sdLrLucP0kw4Om7ijgdV-1" value="" style="fontColor=#0066CC;verticalAlign=top;verticalLabelPosition=bottom;labelPosition=center;align=center;html=1;outlineConnect=0;fillColor=#CCCCCC;strokeColor=#6881B3;gradientColor=none;gradientDirection=north;strokeWidth=2;shape=mxgraph.networks.pc;" parent="1" vertex="1">
          <mxGeometry x="920" y="285.45" width="100" height="70" as="geometry" />
        </mxCell>
        <mxCell id="sdLrLucP0kw4Om7ijgdV-10" value="本地主机" style="swimlane;" parent="1" vertex="1">
          <mxGeometry x="40" y="360" width="520" height="244.89999999999998" as="geometry" />
        </mxCell>
        <mxCell id="sdLrLucP0kw4Om7ijgdV-13" value="应用服务" style="fontColor=#0066CC;verticalAlign=top;verticalLabelPosition=bottom;labelPosition=center;align=center;html=1;outlineConnect=0;fillColor=#CCCCCC;strokeColor=#6881B3;gradientColor=none;gradientDirection=north;strokeWidth=2;shape=mxgraph.networks.server;" parent="sdLrLucP0kw4Om7ijgdV-10" vertex="1">
          <mxGeometry x="40" y="40" width="90" height="100" as="geometry" />
        </mxCell>
        <mxCell id="sdLrLucP0kw4Om7ijgdV-14" value="MySQL" style="fontColor=#0066CC;verticalAlign=top;verticalLabelPosition=bottom;labelPosition=center;align=center;html=1;outlineConnect=0;fillColor=#CCCCCC;strokeColor=#6881B3;gradientColor=none;gradientDirection=north;strokeWidth=2;shape=mxgraph.networks.storage;" parent="sdLrLucP0kw4Om7ijgdV-10" vertex="1">
          <mxGeometry x="280" y="40" width="100" height="100" as="geometry" />
        </mxCell>
        <mxCell id="sdLrLucP0kw4Om7ijgdV-16" value="Minio" style="fontColor=#0066CC;verticalAlign=top;verticalLabelPosition=bottom;labelPosition=center;align=center;html=1;outlineConnect=0;fillColor=#CCCCCC;strokeColor=#6881B3;gradientColor=none;gradientDirection=north;strokeWidth=2;shape=mxgraph.networks.server_storage;" parent="sdLrLucP0kw4Om7ijgdV-10" vertex="1">
          <mxGeometry x="160" y="40" width="105" height="105" as="geometry" />
        </mxCell>
        <mxCell id="sdLrLucP0kw4Om7ijgdV-17" value="信令媒体服务" style="fontColor=#0066CC;verticalAlign=top;verticalLabelPosition=bottom;labelPosition=center;align=center;html=1;outlineConnect=0;fillColor=#CCCCCC;strokeColor=#6881B3;gradientColor=none;gradientDirection=north;strokeWidth=2;shape=mxgraph.networks.router;" parent="sdLrLucP0kw4Om7ijgdV-10" vertex="1">
          <mxGeometry x="400" y="40" width="100" height="30" as="geometry" />
        </mxCell>
        <mxCell id="MYeLcqdQiM6kYIRLOR4--1" value="其他服务" style="fontColor=#0066CC;verticalAlign=top;verticalLabelPosition=bottom;labelPosition=center;align=center;html=1;outlineConnect=0;fillColor=#CCCCCC;strokeColor=#6881B3;gradientColor=none;gradientDirection=north;strokeWidth=2;shape=mxgraph.networks.modem;" parent="sdLrLucP0kw4Om7ijgdV-10" vertex="1">
          <mxGeometry x="400" y="130" width="100" height="30" as="geometry" />
        </mxCell>
        <mxCell id="0pHpCW4Borsp9MRVpki9-1" value="" style="points=[];aspect=fixed;html=1;align=center;shadow=0;dashed=0;fillColor=#FF6A00;strokeColor=none;shape=mxgraph.alibaba_cloud.actiontrail;" vertex="1" parent="sdLrLucP0kw4Om7ijgdV-10">
          <mxGeometry x="59.95" y="167" width="50.099999999999994" height="50.099999999999994" as="geometry" />
        </mxCell>
        <mxCell id="0pHpCW4Borsp9MRVpki9-2" value="服务监控器" style="text;html=1;align=center;verticalAlign=middle;resizable=0;points=[];autosize=1;strokeColor=none;fillColor=none;" vertex="1" parent="sdLrLucP0kw4Om7ijgdV-10">
          <mxGeometry x="45.000000000000014" y="214.90000000000003" width="80" height="30" as="geometry" />
        </mxCell>
        <mxCell id="sdLrLucP0kw4Om7ijgdV-18" value="云上主机" style="swimlane;" parent="1" vertex="1">
          <mxGeometry x="40" y="40" width="520" height="240" as="geometry" />
        </mxCell>
        <mxCell id="sdLrLucP0kw4Om7ijgdV-19" value="应用服务" style="fontColor=#0066CC;verticalAlign=top;verticalLabelPosition=bottom;labelPosition=center;align=center;html=1;outlineConnect=0;fillColor=#CCCCCC;strokeColor=#6881B3;gradientColor=none;gradientDirection=north;strokeWidth=2;shape=mxgraph.networks.server;" parent="sdLrLucP0kw4Om7ijgdV-18" vertex="1">
          <mxGeometry x="40" y="40" width="90" height="100" as="geometry" />
        </mxCell>
        <mxCell id="sdLrLucP0kw4Om7ijgdV-20" value="MySQL" style="fontColor=#0066CC;verticalAlign=top;verticalLabelPosition=bottom;labelPosition=center;align=center;html=1;outlineConnect=0;fillColor=#CCCCCC;strokeColor=#6881B3;gradientColor=none;gradientDirection=north;strokeWidth=2;shape=mxgraph.networks.storage;" parent="sdLrLucP0kw4Om7ijgdV-18" vertex="1">
          <mxGeometry x="280" y="40" width="100" height="100" as="geometry" />
        </mxCell>
        <mxCell id="sdLrLucP0kw4Om7ijgdV-21" value="Minio" style="fontColor=#0066CC;verticalAlign=top;verticalLabelPosition=bottom;labelPosition=center;align=center;html=1;outlineConnect=0;fillColor=#CCCCCC;strokeColor=#6881B3;gradientColor=none;gradientDirection=north;strokeWidth=2;shape=mxgraph.networks.server_storage;" parent="sdLrLucP0kw4Om7ijgdV-18" vertex="1">
          <mxGeometry x="160" y="40" width="105" height="105" as="geometry" />
        </mxCell>
        <mxCell id="sdLrLucP0kw4Om7ijgdV-22" value="信令媒体服务" style="fontColor=#0066CC;verticalAlign=top;verticalLabelPosition=bottom;labelPosition=center;align=center;html=1;outlineConnect=0;fillColor=#CCCCCC;strokeColor=#6881B3;gradientColor=none;gradientDirection=north;strokeWidth=2;shape=mxgraph.networks.router;" parent="sdLrLucP0kw4Om7ijgdV-18" vertex="1">
          <mxGeometry x="400" y="40" width="100" height="30" as="geometry" />
        </mxCell>
        <mxCell id="MYeLcqdQiM6kYIRLOR4--2" value="其他服务" style="fontColor=#0066CC;verticalAlign=top;verticalLabelPosition=bottom;labelPosition=center;align=center;html=1;outlineConnect=0;fillColor=#CCCCCC;strokeColor=#6881B3;gradientColor=none;gradientDirection=north;strokeWidth=2;shape=mxgraph.networks.modem;" parent="sdLrLucP0kw4Om7ijgdV-18" vertex="1">
          <mxGeometry x="400" y="130" width="100" height="30" as="geometry" />
        </mxCell>
        <mxCell id="0pHpCW4Borsp9MRVpki9-3" value="" style="points=[];aspect=fixed;html=1;align=center;shadow=0;dashed=0;fillColor=#FF6A00;strokeColor=none;shape=mxgraph.alibaba_cloud.actiontrail;" vertex="1" parent="sdLrLucP0kw4Om7ijgdV-18">
          <mxGeometry x="59.95" y="164" width="50.099999999999994" height="50.099999999999994" as="geometry" />
        </mxCell>
        <mxCell id="0pHpCW4Borsp9MRVpki9-4" value="服务监控器" style="text;html=1;align=center;verticalAlign=middle;resizable=0;points=[];autosize=1;strokeColor=none;fillColor=none;" vertex="1" parent="sdLrLucP0kw4Om7ijgdV-18">
          <mxGeometry x="45" y="210" width="80" height="30" as="geometry" />
        </mxCell>
        <mxCell id="sdLrLucP0kw4Om7ijgdV-23" style="edgeStyle=orthogonalEdgeStyle;rounded=0;orthogonalLoop=1;jettySize=auto;html=1;exitX=0.5;exitY=0.94;exitDx=0;exitDy=0;exitPerimeter=0;startArrow=classicThin;startFill=1;" parent="1" source="sdLrLucP0kw4Om7ijgdV-21" target="sdLrLucP0kw4Om7ijgdV-16" edge="1">
          <mxGeometry relative="1" as="geometry" />
        </mxCell>
        <mxCell id="sdLrLucP0kw4Om7ijgdV-25" value="主备" style="edgeLabel;html=1;align=center;verticalAlign=middle;resizable=0;points=[];" parent="sdLrLucP0kw4Om7ijgdV-23" vertex="1" connectable="0">
          <mxGeometry x="0.1324" y="1" relative="1" as="geometry">
            <mxPoint as="offset" />
          </mxGeometry>
        </mxCell>
        <mxCell id="sdLrLucP0kw4Om7ijgdV-24" style="edgeStyle=orthogonalEdgeStyle;rounded=0;orthogonalLoop=1;jettySize=auto;html=1;exitX=0.5;exitY=1;exitDx=0;exitDy=0;exitPerimeter=0;startArrow=classicThin;startFill=1;" parent="1" source="sdLrLucP0kw4Om7ijgdV-20" target="sdLrLucP0kw4Om7ijgdV-14" edge="1">
          <mxGeometry relative="1" as="geometry" />
        </mxCell>
        <mxCell id="sdLrLucP0kw4Om7ijgdV-26" value="主备" style="edgeLabel;html=1;align=center;verticalAlign=middle;resizable=0;points=[];" parent="sdLrLucP0kw4Om7ijgdV-24" vertex="1" connectable="0">
          <mxGeometry x="0.0818" relative="1" as="geometry">
            <mxPoint as="offset" />
          </mxGeometry>
        </mxCell>
        <mxCell id="sdLrLucP0kw4Om7ijgdV-41" value="" style="points=[];aspect=fixed;html=1;align=center;shadow=0;dashed=0;fillColor=#FF6A00;strokeColor=none;shape=mxgraph.alibaba_cloud.dns_privatezone_01;" parent="1" vertex="1">
          <mxGeometry x="692" y="293" width="55.800000000000004" height="54.900000000000006" as="geometry" />
        </mxCell>
        <mxCell id="sdLrLucP0kw4Om7ijgdV-42" style="edgeStyle=orthogonalEdgeStyle;rounded=0;orthogonalLoop=1;jettySize=auto;html=1;exitX=1;exitY=0.5;exitDx=0;exitDy=0;entryX=0.502;entryY=0.947;entryDx=0;entryDy=0;entryPerimeter=0;" parent="1" source="sdLrLucP0kw4Om7ijgdV-10" target="sdLrLucP0kw4Om7ijgdV-41" edge="1">
          <mxGeometry relative="1" as="geometry" />
        </mxCell>
        <mxCell id="sdLrLucP0kw4Om7ijgdV-43" value="NAT" style="edgeLabel;html=1;align=center;verticalAlign=middle;resizable=0;points=[];" parent="sdLrLucP0kw4Om7ijgdV-42" vertex="1" connectable="0">
          <mxGeometry x="0.5155" relative="1" as="geometry">
            <mxPoint y="-1" as="offset" />
          </mxGeometry>
        </mxCell>
        <mxCell id="sdLrLucP0kw4Om7ijgdV-45" style="edgeStyle=orthogonalEdgeStyle;rounded=0;orthogonalLoop=1;jettySize=auto;html=1;exitX=0;exitY=0.5;exitDx=0;exitDy=0;exitPerimeter=0;entryX=0.932;entryY=0.492;entryDx=0;entryDy=0;entryPerimeter=0;" parent="1" source="sdLrLucP0kw4Om7ijgdV-1" target="sdLrLucP0kw4Om7ijgdV-41" edge="1">
          <mxGeometry relative="1" as="geometry" />
        </mxCell>
        <mxCell id="sdLrLucP0kw4Om7ijgdV-46" style="edgeStyle=orthogonalEdgeStyle;rounded=0;orthogonalLoop=1;jettySize=auto;html=1;entryX=0.502;entryY=0.128;entryDx=0;entryDy=0;entryPerimeter=0;" parent="1" source="sdLrLucP0kw4Om7ijgdV-18" target="sdLrLucP0kw4Om7ijgdV-41" edge="1">
          <mxGeometry relative="1" as="geometry" />
        </mxCell>
        <mxCell id="sdLrLucP0kw4Om7ijgdV-55" style="edgeStyle=orthogonalEdgeStyle;rounded=0;orthogonalLoop=1;jettySize=auto;html=1;entryX=0.5;entryY=1;entryDx=0;entryDy=0;" parent="1" source="sdLrLucP0kw4Om7ijgdV-47" target="sdLrLucP0kw4Om7ijgdV-10" edge="1">
          <mxGeometry relative="1" as="geometry" />
        </mxCell>
        <mxCell id="sdLrLucP0kw4Om7ijgdV-56" value="监控服务" style="edgeLabel;html=1;align=center;verticalAlign=middle;resizable=0;points=[];" parent="sdLrLucP0kw4Om7ijgdV-55" vertex="1" connectable="0">
          <mxGeometry x="0.078" y="2" relative="1" as="geometry">
            <mxPoint as="offset" />
          </mxGeometry>
        </mxCell>
        <mxCell id="sdLrLucP0kw4Om7ijgdV-58" style="edgeStyle=orthogonalEdgeStyle;rounded=0;orthogonalLoop=1;jettySize=auto;html=1;entryX=1;entryY=0.75;entryDx=0;entryDy=0;" parent="1" source="sdLrLucP0kw4Om7ijgdV-47" target="sdLrLucP0kw4Om7ijgdV-18" edge="1">
          <mxGeometry relative="1" as="geometry">
            <mxPoint x="637.4499999999998" y="210" as="targetPoint" />
            <Array as="points">
              <mxPoint x="638" y="220" />
            </Array>
          </mxGeometry>
        </mxCell>
        <mxCell id="sdLrLucP0kw4Om7ijgdV-59" value="监控服务" style="edgeLabel;html=1;align=center;verticalAlign=middle;resizable=0;points=[];" parent="sdLrLucP0kw4Om7ijgdV-58" vertex="1" connectable="0">
          <mxGeometry x="0.0754" relative="1" as="geometry">
            <mxPoint x="1" as="offset" />
          </mxGeometry>
        </mxCell>
        <mxCell id="sdLrLucP0kw4Om7ijgdV-47" value="" style="points=[];aspect=fixed;html=1;align=center;shadow=0;dashed=0;fillColor=#FF6A00;strokeColor=none;shape=mxgraph.alibaba_cloud.webplus_web_app_service;" parent="1" vertex="1">
          <mxGeometry x="610" y="600" width="54.900000000000006" height="54.900000000000006" as="geometry" />
        </mxCell>
        <mxCell id="sdLrLucP0kw4Om7ijgdV-50" value="&lt;h1 style=&quot;margin-top: 0px;&quot;&gt;监控管理器&lt;/h1&gt;&lt;p&gt;&lt;span style=&quot;background-color: transparent; color: light-dark(rgb(0, 0, 0), rgb(255, 255, 255));&quot;&gt;通知方式：邮件&lt;/span&gt;&lt;br&gt;&lt;/p&gt;&lt;p&gt;监控方式：&lt;span style=&quot;background-color: transparent; color: light-dark(rgb(0, 0, 0), rgb(255, 255, 255));&quot;&gt;连通性监控（REST/Socket）、&lt;/span&gt;&lt;span style=&quot;background-color: transparent; color: light-dark(rgb(0, 0, 0), rgb(255, 255, 255));&quot;&gt;监控服务监控器&lt;/span&gt;&lt;/p&gt;&lt;p&gt;可以部署多个监控管理器服务&lt;span style=&quot;background-color: transparent; color: light-dark(rgb(0, 0, 0), rgb(255, 255, 255));&quot;&gt;&lt;br&gt;&lt;/span&gt;&lt;/p&gt;&lt;p&gt;&lt;span style=&quot;background-color: transparent; color: light-dark(rgb(0, 0, 0), rgb(255, 255, 255));&quot;&gt;如果有服务部署在本地主机并且没有固定IP时，监控服务也要部署在本地，这样可以修改DNS时可以自动获取外网IP。&lt;/span&gt;&lt;br&gt;&lt;/p&gt;" style="text;html=1;whiteSpace=wrap;overflow=hidden;rounded=0;" parent="1" vertex="1">
          <mxGeometry x="560" y="680" width="360" height="160" as="geometry" />
        </mxCell>
        <mxCell id="sdLrLucP0kw4Om7ijgdV-60" style="edgeStyle=orthogonalEdgeStyle;rounded=0;orthogonalLoop=1;jettySize=auto;html=1;entryX=0.896;entryY=0.893;entryDx=0;entryDy=0;entryPerimeter=0;" parent="1" source="sdLrLucP0kw4Om7ijgdV-47" target="sdLrLucP0kw4Om7ijgdV-41" edge="1">
          <mxGeometry relative="1" as="geometry" />
        </mxCell>
        <mxCell id="sdLrLucP0kw4Om7ijgdV-61" value="DNS切换" style="edgeLabel;html=1;align=center;verticalAlign=middle;resizable=0;points=[];" parent="sdLrLucP0kw4Om7ijgdV-60" vertex="1" connectable="0">
          <mxGeometry x="-0.0093" y="-4" relative="1" as="geometry">
            <mxPoint as="offset" />
          </mxGeometry>
        </mxCell>
        <mxCell id="sdLrLucP0kw4Om7ijgdV-62" value="&lt;h1 style=&quot;margin-top: 0px;&quot;&gt;DNS切换&lt;/h1&gt;&lt;p&gt;&lt;span style=&quot;background-color: transparent; color: light-dark(rgb(0, 0, 0), rgb(255, 255, 255));&quot;&gt;数据服务主从备份&lt;/span&gt;&lt;/p&gt;&lt;p&gt;应用服务和其他服务完全独立&lt;/p&gt;&lt;p&gt;&lt;span style=&quot;background-color: transparent; color: light-dark(rgb(0, 0, 0), rgb(255, 255, 255));&quot;&gt;配置需要DNS切换的监控才会触发DNS切换&lt;/span&gt;&lt;br&gt;&lt;/p&gt;&lt;p&gt;切换完成以后端侧需要手动刷新&lt;/p&gt;" style="text;html=1;whiteSpace=wrap;overflow=hidden;rounded=0;" parent="1" vertex="1">
          <mxGeometry x="800" y="400" width="240" height="160" as="geometry" />
        </mxCell>
        <mxCell id="sdLrLucP0kw4Om7ijgdV-63" value="&lt;h1 style=&quot;margin-top: 0px;&quot;&gt;恢复策略&lt;/h1&gt;&lt;p&gt;凌晨如果云上主机正常自动切换&lt;/p&gt;" style="text;html=1;whiteSpace=wrap;overflow=hidden;rounded=0;" parent="1" vertex="1">
          <mxGeometry x="280" y="680" width="200" height="120" as="geometry" />
        </mxCell>
        <mxCell id="MYeLcqdQiM6kYIRLOR4--3" value="" style="fontColor=#0066CC;verticalAlign=top;verticalLabelPosition=bottom;labelPosition=center;align=center;html=1;outlineConnect=0;fillColor=#CCCCCC;strokeColor=#6881B3;gradientColor=none;gradientDirection=north;strokeWidth=2;shape=mxgraph.networks.security_camera;" parent="1" vertex="1">
          <mxGeometry x="920" y="160" width="100" height="75" as="geometry" />
        </mxCell>
        <mxCell id="MYeLcqdQiM6kYIRLOR4--4" style="edgeStyle=orthogonalEdgeStyle;rounded=0;orthogonalLoop=1;jettySize=auto;html=1;exitX=0;exitY=0.5;exitDx=0;exitDy=0;exitPerimeter=0;entryX=0.878;entryY=0.2;entryDx=0;entryDy=0;entryPerimeter=0;" parent="1" source="MYeLcqdQiM6kYIRLOR4--3" target="sdLrLucP0kw4Om7ijgdV-41" edge="1">
          <mxGeometry relative="1" as="geometry" />
        </mxCell>
        <mxCell id="MYeLcqdQiM6kYIRLOR4--5" value="STUN服务器" style="fontColor=#0066CC;verticalAlign=top;verticalLabelPosition=bottom;labelPosition=center;align=center;html=1;outlineConnect=0;fillColor=#CCCCCC;strokeColor=#6881B3;gradientColor=none;gradientDirection=north;strokeWidth=2;shape=mxgraph.networks.mainframe;" parent="1" vertex="1">
          <mxGeometry x="930" y="610" width="80" height="100" as="geometry" />
        </mxCell>
        <mxCell id="MYeLcqdQiM6kYIRLOR4--6" style="edgeStyle=orthogonalEdgeStyle;rounded=0;orthogonalLoop=1;jettySize=auto;html=1;entryX=0.088;entryY=0.68;entryDx=0;entryDy=0;entryPerimeter=0;" parent="1" source="sdLrLucP0kw4Om7ijgdV-47" target="MYeLcqdQiM6kYIRLOR4--5" edge="1">
          <mxGeometry relative="1" as="geometry" />
        </mxCell>
        <mxCell id="MYeLcqdQiM6kYIRLOR4--7" value="STUN外网IP" style="edgeLabel;html=1;align=center;verticalAlign=middle;resizable=0;points=[];" parent="MYeLcqdQiM6kYIRLOR4--6" vertex="1" connectable="0">
          <mxGeometry x="0.0881" relative="1" as="geometry">
            <mxPoint x="1" y="-16" as="offset" />
          </mxGeometry>
        </mxCell>
        <mxCell id="MYeLcqdQiM6kYIRLOR4--13" value="端侧设备" style="swimlane;" parent="1" vertex="1">
          <mxGeometry x="840" y="98" width="240" height="292" as="geometry" />
        </mxCell>
        <mxCell id="MYeLcqdQiM6kYIRLOR4--14" value="&lt;h1 style=&quot;margin-top: 0px;&quot;&gt;端侧设备&lt;/h1&gt;&lt;p&gt;端侧设备需要配置域名地址&lt;/p&gt;" style="text;html=1;whiteSpace=wrap;overflow=hidden;rounded=0;" parent="1" vertex="1">
          <mxGeometry x="840" width="160" height="80" as="geometry" />
        </mxCell>
        <mxCell id="0pHpCW4Borsp9MRVpki9-5" value="&lt;h1 style=&quot;margin-top: 0px;&quot;&gt;服务监控器&lt;/h1&gt;&lt;p&gt;提供CPU监控、内存监控、磁盘监控、异常监控、自定义的健康监控&lt;/p&gt;&lt;p&gt;需要应用服务引入服务监控器依赖并添加相关配置即可&lt;/p&gt;" style="text;html=1;whiteSpace=wrap;overflow=hidden;rounded=0;" vertex="1" parent="1">
          <mxGeometry x="40" y="680" width="200" height="120" as="geometry" />
        </mxCell>
      </root>
    </mxGraphModel>
  </diagram>
</mxfile>
